<svg id="Layer_1" enable-background="new 0 0 512 512" viewBox="0 0 512 512" xmlns="http://www.w3.org/2000/svg"><g><g clip-rule="evenodd" fill-rule="evenodd"><path d="m225.72 331.52h60.57v23.6c0 11.59 6.31 21.49 16.82 26.4 28.39 13.23 68.25 16.32 68.25 53.09v6.8c-32.71 18.25-70.38 28.68-110.48 28.68-44.16 0-85.36-12.62-120.23-34.43v-1.05c0-36.77 39.86-39.86 68.25-53.09 10.51-4.91 16.82-14.81 16.82-26.4z" fill="#ffd400"/><path d="m225.72 331.52h60.57v23.6c0 8.53 3.42 16.15 9.4 21.52-5.64 16.53-21.32 28.5-39.69 28.5s-34.08-11.97-39.69-28.5c5.99-5.37 9.4-13 9.4-21.52v-23.6z" fill="#fbbd80"/><path d="m225.72 331.52h60.57v23.6c0 3.68.61 7.18 1.84 10.43-9.35 4.7-19.89 7.39-31.01 7.39h-2.54c-11.04 0-21.46-2.63-30.75-7.24 1.26-3.27 1.9-6.83 1.9-10.57v-23.61z" fill="#e2aa73"/><path d="m179.28 278.95h153.08c0-37.18 5.87-64.71-35.01-68.28-1.99-.18-3.59-1.29-4.41-3.1-.85-1.78-.67-3.74.47-5.34l6.8-9.67c1.2-1.66 1.31-3.74.38-5.55-.93-1.84-2.72-2.92-4.76-2.92h-49.27c-34.78 0-67.28 22.22-67.28 59.6z" fill="#231915"/><path d="m192.72 265.52h126.25c7.39 0 13.43 6.05 13.43 13.43v17.14c0 7.39-6.05 13.4-13.43 13.4h-126.25c-7.39 0-13.43-6.02-13.43-13.4v-17.14c-.01-7.38 6.04-13.43 13.43-13.43z" fill="#e2aa73"/><path d="m268.62 242.27 7.42 4.96c3.97 2.66 8.03 3.88 12.79 3.88h4.35c9.14 0 16.59 7.45 16.59 16.59v36.07c0 28.97-23.68 52.65-52.65 52.65h-2.54c-28.97 0-52.68-23.68-52.68-52.65v-36.07c0-9.14 7.48-16.59 16.62-16.59h4.35c4.73 0 8.82-1.23 12.76-3.88l7.45-4.96c7.87-5.28 17.62-5.28 25.54 0z" fill="#fbbd80"/></g><path d="m256 29.06c90.36 0 168.39 52.83 204.89 129.28.93 1.96.55 4.21-.99 5.75l-19.19 19.19c-1.23 1.23-2.83 1.72-4.56 1.37-1.69-.32-3.01-1.4-3.71-3.01-29-68.8-97.07-117.11-176.45-117.11-103.99 0-188.62 82.91-191.37 186.26-.03 1.4.44 2.66 1.43 3.65.99 1.02 2.22 1.55 3.62 1.55h18.37c2.07 0 3.88 1.2 4.67 3.12.79 1.93.38 4.06-1.11 5.52l-41.21 41.24c-1.99 1.99-5.2 1.99-7.18 0l-41.22-41.23c-1.46-1.46-1.9-3.59-1.08-5.52.79-1.92 2.57-3.12 4.67-3.12h18.49c2.75 0 4.99-2.22 5.05-4.96 2.63-123.04 103.2-221.98 226.88-221.98zm212.78 177.06 41.24 41.24c1.46 1.46 1.9 3.59 1.08 5.52-.79 1.93-2.6 3.12-4.67 3.12h-18.49c-2.75 0-4.99 2.22-5.05 4.96-2.67 123.04-103.21 221.98-226.89 221.98-90.36 0-168.39-52.83-204.89-129.28-.93-1.96-.55-4.21.99-5.75l19.19-19.19c1.23-1.23 2.83-1.72 4.56-1.37 1.69.32 3.01 1.4 3.68 2.98 29.03 68.83 97.1 117.11 176.48 117.11 103.99 0 188.62-82.91 191.37-186.23.03-1.4-.44-2.66-1.43-3.68-.99-.99-2.22-1.52-3.62-1.52h-18.37c-2.07 0-3.88-1.2-4.67-3.12-.79-1.93-.38-4.06 1.11-5.52l41.21-41.24c1.97-2 5.18-2 7.17-.01z" fill="#70da40"/><path clip-rule="evenodd" d="m249.72 159.34h12.56c2.07 0 3.77-1.69 3.77-3.74v-20.76h20.76c2.07 0 3.77-1.69 3.77-3.77v-12.59c0-2.07-1.69-3.74-3.77-3.74h-20.76v-20.79c0-2.04-1.69-3.74-3.77-3.74h-12.56c-2.07 0-3.77 1.69-3.77 3.74v20.79h-20.76c-2.07 0-3.77 1.66-3.77 3.74v12.59c0 2.07 1.69 3.77 3.77 3.77h20.76v20.76c0 2.04 1.7 3.74 3.77 3.74z" fill="#0593fc" fill-rule="evenodd"/><path clip-rule="evenodd" d="m363.29 218.18h12.59c2.07 0 3.77-1.69 3.77-3.77v-20.76h20.76c2.07 0 3.77-1.69 3.77-3.77v-12.58c0-2.04-1.69-3.74-3.77-3.74h-20.76v-20.76c0-2.07-1.69-3.77-3.77-3.77h-12.59c-2.04 0-3.74 1.69-3.74 3.77v20.76h-20.76c-2.07 0-3.77 1.69-3.77 3.74v12.59c0 2.07 1.69 3.77 3.77 3.77h20.76v20.76c.01 2.07 1.7 3.76 3.74 3.76z" fill="#0593fc" fill-rule="evenodd"/><path clip-rule="evenodd" d="m136.12 218.18h12.56c2.07 0 3.77-1.69 3.77-3.77v-20.76h20.76c2.07 0 3.77-1.69 3.77-3.77v-12.58c0-2.04-1.69-3.74-3.77-3.74h-20.76v-20.76c0-2.07-1.69-3.77-3.77-3.77h-12.56c-2.07 0-3.77 1.69-3.77 3.77v20.76h-20.76c-2.07 0-3.77 1.69-3.77 3.74v12.59c0 2.07 1.69 3.77 3.77 3.77h20.76v20.76c0 2.07 1.7 3.76 3.77 3.76z" fill="#0593fc" fill-rule="evenodd"/><path d="m256 29.06c1.78 0 3.53.03 5.31.09-121.13 2.86-218.79 100.66-221.39 221.89-.06 2.75-2.31 4.96-5.05 4.96h-18.48c-2.1 0-3.88 1.2-4.67 3.12-.82 1.93-.38 4.06 1.08 5.52l39.42 39.42-1.81 1.81c-1.99 1.99-5.2 1.99-7.18 0l-41.24-41.23c-1.46-1.46-1.9-3.59-1.08-5.52.79-1.92 2.57-3.12 4.67-3.12h18.49c2.75 0 4.99-2.22 5.05-4.96 2.63-123.04 103.2-221.98 226.88-221.98zm186.99 151.95-2.28 2.28c-1.23 1.23-2.83 1.72-4.56 1.37-1.69-.32-3.01-1.4-3.71-3.01-28.36-67.26-94.03-114.89-171.1-117.02 1.81-.03 3.62-.09 5.46-.09 79.12 0 147.01 48.01 176.19 116.47zm25.79 25.11 1.81 1.81-39.42 39.42c-1.46 1.46-1.9 3.59-1.08 5.52.79 1.93 2.57 3.12 4.67 3.12h-10.81c-2.07 0-3.88-1.2-4.67-3.12-.79-1.93-.38-4.06 1.11-5.52l41.21-41.24c1.98-1.98 5.19-1.98 7.18.01zm-207.29 276.73c-1.84.06-3.65.09-5.49.09-90.36 0-168.39-52.83-204.89-129.28-.93-1.96-.55-4.21.99-5.75l19.19-19.19c1.23-1.23 2.83-1.72 4.56-1.37 1.69.32 3.01 1.4 3.68 2.98.12.23.2.44.29.67l-16.91 16.9c-1.55 1.55-1.93 3.8-.99 5.75 35.77 74.94 111.46 127.19 199.57 129.2zm-.06-35.48c101.51-2.83 183.22-84.66 185.94-186.17.03-1.4-.44-2.66-1.43-3.68-.99-.99-2.22-1.52-3.62-1.52h10.78c1.43 0 2.66.53 3.65 1.52.99 1.02 1.46 2.28 1.43 3.68-2.77 103.32-87.38 186.23-191.37 186.23-1.82 0-3.6-.03-5.38-.06z" fill="#65c43a"/></g></svg>